<?xml version="1.0" encoding="UTF-8" standalone="no"?>
<svg
   xmlns:dc="http://purl.org/dc/elements/1.1/"
   xmlns:cc="http://creativecommons.org/ns#"
   xmlns:rdf="http://www.w3.org/1999/02/22-rdf-syntax-ns#"
   xmlns:svg="http://www.w3.org/2000/svg"
   xmlns="http://www.w3.org/2000/svg"
   xmlns:sodipodi="http://sodipodi.sourceforge.net/DTD/sodipodi-0.dtd"
   xmlns:inkscape="http://www.inkscape.org/namespaces/inkscape"
   width="180.72505mm"
   height="44.24234mm"
   viewBox="0 0 180.72505 44.24234"
   version="1.1"
   id="svg8"
   inkscape:version="1.0.1 (3bc2e813f5, 2020-09-07)"
   sodipodi:docname="logo-r-white.svg">
  <defs
     id="defs2" />
  <sodipodi:namedview
     id="base"
     pagecolor="#ffffff"
     bordercolor="#666666"
     borderopacity="1.0"
     inkscape:pageopacity="0.0"
     inkscape:pageshadow="2"
     inkscape:zoom="0.35"
     inkscape:cx="345.03289"
     inkscape:cy="140.09834"
     inkscape:document-units="mm"
     inkscape:current-layer="layer1"
     inkscape:document-rotation="0"
     showgrid="false"
     inkscape:window-width="1920"
     inkscape:window-height="1027"
     inkscape:window-x="-8"
     inkscape:window-y="-8"
     inkscape:window-maximized="1"
     fit-margin-top="0"
     fit-margin-left="0"
     fit-margin-right="0"
     fit-margin-bottom="0" />
  <metadata
     id="metadata5">
    <rdf:RDF>
      <cc:Work
         rdf:about="">
        <dc:format>image/svg+xml</dc:format>
        <dc:type
           rdf:resource="http://purl.org/dc/dcmitype/StillImage" />
        <dc:title></dc:title>
      </cc:Work>
    </rdf:RDF>
  </metadata>
  <g
     inkscape:label="Слой 1"
     inkscape:groupmode="layer"
     id="layer1"
     transform="translate(-14.54338,-111.09898)">
    <text
       xml:space="preserve"
       style="font-style:normal;font-weight:normal;font-size:12.7px;line-height:1.25;font-family:sans-serif;letter-spacing:0px;word-spacing:0px;fill:#ffffff;fill-opacity:1;stroke:none;stroke-width:0.264583;"
       x="60.703003"
       y="130.32617"
       id="text835"><tspan
         sodipodi:role="line"
         id="tspan833"
         x="60.703003"
         y="130.32617"
         style="font-style:normal;font-variant:normal;font-weight:bold;font-stretch:normal;font-size:12.7px;font-family:Calibri;-inkscape-font-specification:'Calibri Bold';fill:#ffffff;stroke-width:0.264583;">RECRUITMENT COMPANY</tspan></text>
    <path
       style="fill:#ffffff;stroke-width:0.510986;stroke-dasharray:2.04395, 2.04395000000000016"
       id="path839"
       d="m 18.50595,120.03784 c 2.424374,-0.39748 4.872105,-0.5886 7.323267,-0.71408 2.783998,-0.0579 5.58092,-0.24175 8.35769,0.0346 1.725032,0.22196 3.258568,0.95446 4.663098,1.94633 1.087956,0.77184 2.105666,1.62323 3.014402,2.59895 0.95269,1.06199 1.624126,2.28819 2.167265,3.59483 0.456557,1.10256 0.541058,2.28855 0.597124,3.46597 -0.03982,1.35337 -0.648222,2.55126 -1.34184,3.67934 -0.161573,0.20159 -0.311575,0.41301 -0.484717,0.60475 -0.41858,0.46355 -0.71634,0.70525 -1.239362,1.05447 -0.228525,0.15258 -0.943159,0.56438 -0.706835,0.42418 4.462961,-2.64752 5.538823,-3.04863 2.987688,-1.96088 -2.308415,0.91814 -4.761621,1.37606 -7.169829,1.95238 -2.560698,0.57545 -5.129319,1.09745 -7.725569,1.48427 -1.485462,0.19542 -2.979263,0.38171 -4.479763,0.36581 -1.329836,-0.14656 -2.635329,-0.50301 -3.807776,-1.1504 -2.162415,-1.45713 -0.296276,-2.16831 -5.41317,2.6404 -0.235638,0.22145 0.609905,0.21696 0.9055,0.34806 0.551078,0.2444 1.088522,0.51845 1.632781,0.77768 6.21574,2.90595 12.540524,5.56691 18.826266,8.31544 3.572616,1.57705 7.01765,3.41346 10.443091,5.28219 0.365247,0.18639 0.730494,0.37279 1.09574,0.55919 0,0 4.827033,-3.1777 4.827033,-3.1777 v 0 c -0.368837,-0.17841 -0.737674,-0.35683 -1.106511,-0.53524 -3.528952,-1.80194 -7.062601,-3.58987 -10.701306,-5.16645 -6.283227,-2.62907 -12.694709,-5.02036 -18.634998,-8.38943 -0.507508,-0.29183 -1.015036,-0.58361 -1.522517,-0.87548 -0.290569,-0.16711 -0.560831,-0.627 -0.871643,-0.50147 -5.254191,2.12205 -6.999452,2.06927 -4.423603,3.93445 1.218968,0.72587 2.576369,1.1024 3.962582,1.3778 1.552885,0.15081 3.111177,-0.16949 4.650824,-0.34337 2.590119,-0.39473 5.162864,-0.88 7.725755,-1.424 2.426492,-0.57012 4.880795,-1.08447 7.238629,-1.89664 3.141841,-1.18128 1.210217,-0.39093 7.013636,-3.74321 0.967909,-0.55911 1.735776,-1.40727 2.333365,-2.33783 0.689017,-1.24059 1.274517,-2.54951 1.220029,-4.00167 -0.07887,-1.24104 -0.185268,-2.48935 -0.693315,-3.64233 -0.576436,-1.36586 -1.343302,-2.61379 -2.272551,-3.77204 -0.931636,-1.01269 -1.964168,-1.90453 -3.104764,-2.6794 -1.451556,-1.07472 -3.062614,-1.8935 -4.86538,-2.17584 -2.818924,-0.32066 -5.658727,-0.0527 -8.488284,-0.0453 -2.402193,0.0743 -4.794345,0.23331 -7.177485,0.55616 0,0 -4.754547,3.53542 -4.754547,3.53542 z" />
    <path
       style="fill:#ffffff;stroke-width:0.510986;stroke-dasharray:2.04395, 2.04395000000000016"
       id="path843"
       d="m 21.422936,113.7811 c 0.213608,4.54541 0.189934,9.0974 0.0475,13.64422 -0.226438,6.61436 -0.553639,13.22352 -0.907559,19.83204 -0.114138,2.37604 -0.234689,4.75185 -0.317257,7.12925 0,0 5.21885,-2.65015 5.21885,-2.65015 v 0 c -0.01843,-2.32511 -0.01149,-4.65045 0.04305,-6.97512 0.141848,-6.60023 0.452401,-13.19112 0.808201,-19.78274 0.190267,-4.62606 0.218607,-9.25309 0.371193,-13.87962 0,0 -5.263955,2.68212 -5.263955,2.68212 z" />
    <text
       xml:space="preserve"
       style="font-style:normal;font-weight:normal;font-size:10.5833px;line-height:1.25;font-family:sans-serif;letter-spacing:0px;word-spacing:0px;fill:#ffffff;fill-opacity:1;stroke:none;stroke-width:0.264583;"
       x="60.627373"
       y="146.73033"
       id="text847"><tspan
         sodipodi:role="line"
         id="tspan845"
         x="60.627373"
         y="146.73033"
         style="fill:#ffffff;stroke-width:0.264583;">GET A JOB</tspan></text>
  </g>
</svg>
